<svg id="Layer_1" data-name="Layer 1" xmlns="http://www.w3.org/2000/svg" viewBox="0 0 64 64"><defs><style>.cls-1{fill:#8c6b51;}.cls-2{fill:#e57276;}</style></defs><path class="cls-1" d="M58.47,10.38c-6-6.78-17.36-7.62-26.16,1-8.8-8.66-20.16-7.82-26.16-1C-.23,17.59,2.45,31,10.85,41.8c4.26,5.45,14.78,14.32,21.46,18.05C39,56.12,49.51,47.25,53.77,41.8,62.17,31,64.85,17.59,58.47,10.38Z"/><path class="cls-2" d="M32.32,50c-10.56-.28-11.22-9.1-16-7.59A4.15,4.15,0,1,1,23.85,39c1.42,3.72,3.62,7.84,9.55,7.84,2.06,0,4.51-1.28,4.51-3.78,0-8-20.77-9.21-20.77-20.82,0-7.93,8.86-9.65,14-9.65s10.53,2.31,12.74,5.29c.87,1.17.78,2.52.12,4.45-2.41,1.26-4.44,1.06-5.61-.87-1.72-2.74-3.28-5.73-7.59-5.73-2.21,0-4.66,1.22-4.66,3.92,0,7.25,21.26,9.16,21.26,19.74C47.36,46.37,40.7,50.22,32.32,50Z"/></svg>