<svg xmlns="http://www.w3.org/2000/svg" viewBox="0 0 1366 768"><defs><style>.cls-1{fill:#fde8e8;}.cls-2{fill:#e57676;}.cls-3{fill:#72584c;}</style></defs><g id="Layer_7" data-name="Layer 7"><circle class="cls-1" cx="680" cy="389" r="293"/></g><g id="Layer_5" data-name="Layer 5"><path class="cls-2" d="M566.07,385.34c-23.31-.63-24.75-20.08-35.34-16.75-2.81-4.86-.32-13.61,8-13.61a9.16,9.16,0,0,1,8.64,6.16c3.14,8.21,8,17.29,21.07,17.29,4.54,0,9.94-2.81,9.94-8.32,0-17.62-45.81-20.32-45.81-45.93,0-17.5,19.56-21.29,30.79-21.29,11.46,0,23.24,5.08,28.1,11.67,1.92,2.57,1.73,5.56.26,9.81-5.3,2.79-9.78,2.33-12.36-1.92-3.79-6.05-7.24-12.64-16.75-12.64-4.87,0-10.27,2.7-10.27,8.64,0,16,46.9,20.21,46.9,43.55C599.24,377.34,584.54,385.84,566.07,385.34Z"/><path class="cls-2" d="M630.79,327.86c12,0,23.88,7.56,26.37,17,5,18.8-39.33,9-29.72,23.34a16,16,0,0,0,13.94,7.46c9.94,0,18.7-5.19,25.4-15.78v-10c0-9.51-2.92-8.43-2.92-11.34a2.62,2.62,0,0,1,2.81-2.6c7.34,0,9.72-6.27,15.34-6.27a3.37,3.37,0,0,1,3.35,3.35v2.49c4.54-5.08,9.51-7.56,14.8-7.56,7.68,0,14.48,5,14.48,13.93,0,7.14-4.43,10.7-9.18,10.7s-.62-4.8-.62-9.56c0-5.08-5.87-7.29-9-7.29-6.81,0-15.13,8.21-20.42,18a124.88,124.88,0,0,1-8.21,13.94c5-5.62,18.15-20.85,18.15-8.75v10.8c0,9.51,2.92,8.43,2.92,11.35a2.72,2.72,0,0,1-2.92,2.59H666.67a2.68,2.68,0,0,1-2.81-2.59c0-2.92,2.92-1.84,2.92-11.35v-1.4c-6.06,8.53-15.57,17.07-32.53,17.07-16.64,0-30.15-12.86-30.15-28.74S614.8,327.86,630.79,327.86Zm-7,32.2c1.94-3.14,5.94-4.54,10.7-6.38,10.69-4.21,4.75-20.64-3.68-20.64C622.9,333,620.64,349.47,623.77,360.06Z"/><path class="cls-2" d="M743.39,407.92a2.69,2.69,0,0,1-2.81,2.6H721.89c-1.73,0-1.92,2.25-1.92.85,0-2.92,1.92-5.28,1.92-14.79V349.79c0-9.62,0-11-2.92-11.45-2.6-.45-.44-4,2.92-2.6,6.64,2.89,11.05-1.45,15.23-6.26,1.21-1.39,3.35,1.51,3.35,3.35v.32a13.45,13.45,0,0,1,10.7-5.29c14.05,0,27.88,11.45,27.88,28.85S765.76,385.34,750,385.34c-3.67,0-7.78-1.4-9.51-2.92v14.16C740.47,406.09,743.39,405,743.39,407.92Zm5.19-27.77c8,0,11.24-10,11.24-23.44,0-13.62-3.89-23.67-11.24-23.67-3.57,0-8.11,3.78-8.11,9v29C740.47,377.13,744.69,380.15,748.58,380.15Z"/><path class="cls-2" d="M500.13,400.57a14.41,14.41,0,0,1,8.43,2.6v-6.59c0-9.51-1.79-8.66-2.92-11.35-3.23-7.72,1.82-16.37,6.14-17.09-2.88,5.05-2.65,10.58,11.51,8.31a3.33,3.33,0,0,1,3.86,3.27v62.67c0,9.51.48,7.88,3.36,11.48.88,1.1,6.48,11.53-5,15.13l-.86-1.71a15.15,15.15,0,0,0-13.55-8.38h0c-4.32-.72-2.5-3.66-2.5-4.85v-.76a14.13,14.13,0,0,1-10.8,4.76c-13.94,0-27.77-11.45-27.77-28.85S483.49,400.57,500.13,400.57Zm-.11,5.3c-6.59,0-10.8,9.29-10.8,23.34,0,13.61,4.21,23.66,11.56,23.66,4,0,7.78-3.35,7.78-10.7v-27C508.56,409.11,504.78,405.87,500,405.87Z"/><path class="cls-2" d="M565.18,400.57c16.64,0,30.15,12.86,30.15,28.75s-13.51,28.74-30.15,28.74-30.25-12.86-30.25-28.74S548.44,400.57,565.18,400.57ZM554.44,429c-.46,13,4,23.59,9.89,23.82s11.13-10.15,11.59-23.12-4-23.59-10-23.85S554.91,416,554.44,429Z"/><path class="cls-2" d="M656.49,444.34c-2.81,5.83-12.21,13.72-25.5,13.72-16.75,0-30.25-12.86-30.25-28.74s10.8-28.75,26.69-28.75c14.58,0,25.06,9,25.06,18.48a9.15,9.15,0,0,1-9.18,9.08,9,9,0,0,1-9.18-9.08c0-8.64-2.17-13.29-6.7-13.29-12.86.32-12.54,44.52,11.88,42.47a18.69,18.69,0,0,0,13.29-6.38,2.34,2.34,0,0,1,3.24-.43A2.14,2.14,0,0,1,656.49,444.34Z"/><path class="cls-2" d="M777.85,442.39V422.51c0-9.51-2.92-8.43-2.92-11.35a2.62,2.62,0,0,1,2.81-2.59c7.35,0,9.72-6.27,15.34-6.27a3.36,3.36,0,0,1,3.35,3.35v36.74c0,9.51,2.92,8.43,2.92,11.35a2.72,2.72,0,0,1-2.92,2.59H777.74a2.68,2.68,0,0,1-2.81-2.59C774.93,450.82,777.85,451.9,777.85,442.39Z"/><path class="cls-2" d="M860.19,450.06a14,14,0,0,1-11.89,6.27c-6.38,0-11.56-3.78-11.56-10.48V421.43a44.21,44.21,0,0,1-6.7,5.62,16.19,16.19,0,0,0-7.24,13.61c-.11,6.27,3.24,11.67,8,8.32,1.09-.75,7.33-5.77,7.33-4.47,0,.54-5,6.74-5.27,7.17-2.49,3.46-6.81,6.38-13.94,6.38-8.75,0-14.7-5.94-14.7-14.7,0-10.26,10.92-15.77,18.7-19.34s12.21-7.24,12.21-12.53c0-3.14-2.6-5.73-6.81-5.73-5.84,0-8.75,3.67-8.75,8.64,0,4.11-2.92,5.19-5.62,5.19a5.27,5.27,0,0,1-5.4-5.4c0-6.27,8.1-13.62,19.77-13.62,16.32,0,27,9.84,27,24.1V445c0,1.95.41,2.79,2.27,2.92C860.45,448.11,861.89,447.39,860.19,450.06Z"/><path class="cls-2" d="M838.64,377.28a14,14,0,0,1-11.89,6.27c-6.37,0-11.56-3.79-11.56-10.48V348.65a44.32,44.32,0,0,1-6.7,5.61,16.2,16.2,0,0,0-7.24,13.62c-.11,6.27,3.24,11.67,8,8.32,1.08-.76,7.32-5.77,7.32-4.48,0,.54-4.94,6.75-5.27,7.18-2.48,3.46-6.81,6.38-13.94,6.38-8.75,0-14.69-5.95-14.69-14.7,0-10.27,10.91-15.78,18.69-19.34s12.21-7.24,12.21-12.54c0-3.13-2.59-5.72-6.81-5.72-5.83,0-8.75,3.67-8.75,8.64,0,4.11-2.92,5.19-5.62,5.19a5.27,5.27,0,0,1-5.4-5.4c0-6.27,8.1-13.62,19.77-13.62,16.32,0,27,9.83,27,24.1V372.2c0,1.95.41,2.78,2.27,2.92C838.9,375.33,840.35,374.61,838.64,377.28Z"/><path class="cls-2" d="M686.73,400.38c12,0,23.88,7.57,26.37,17,5,18.8-39.34,9-29.72,23.34a16,16,0,0,0,13.94,7.45c9.94,0,18.69-5.18,25.39-15.77V422.32c0-9.51-2.91-8.43-2.91-11.35a2.61,2.61,0,0,1,2.81-2.59c7.34,0,9.72-6.27,15.34-6.27a3.36,3.36,0,0,1,3.35,3.35V408c4.54-5.08,9.51-7.57,14.8-7.57,7.67,0,14.48,5,14.48,13.94,0,7.13-4.43,10.7-9.18,10.7s-.62-4.81-.62-9.56c0-5.08-5.87-7.3-9-7.3-6.81,0-15.13,8.21-20.42,18a127.44,127.44,0,0,1-8.21,13.94c5-5.62,18.15-20.86,18.15-8.76V442.2c0,9.51,2.92,8.43,2.92,11.34a2.72,2.72,0,0,1-2.92,2.6H722.61a2.68,2.68,0,0,1-2.81-2.6c0-2.91,2.91-1.83,2.91-11.34v-1.41c-6.05,8.54-15.56,17.08-32.52,17.08C673.55,457.87,660,445,660,429.12S670.74,400.38,686.73,400.38Zm-7,32.2c1.94-3.13,5.94-4.54,10.69-6.37,10.7-4.22,4.76-20.64-3.67-20.64C678.84,405.57,676.57,422,679.71,432.58Z"/></g><g id="Layer_6" data-name="Layer 6"><path class="cls-3" d="M539.83,347.23S518.51,340.44,508,318.7c-9.74-20.12-7-33.21-.09-43.35s16.81-12.15,21.83-7.56a9.08,9.08,0,0,1,2.85,6.72,13.22,13.22,0,0,1-1.93,7c-2.73,4.59-10,19-6.43,36.41C528.61,339.13,537,345,539.83,347.23Z"/><path class="cls-3" d="M537.32,351.88s-11.16,3.93-24.59-1.84c-12.41-5.34-17-11.7-18.67-18.14s1.27-10.43,5.19-10.1a6.69,6.69,0,0,1,4,1.91,8.57,8.57,0,0,1,2.26,3.54,35.16,35.16,0,0,0,13.18,17.31C529.5,352.05,535.27,351.87,537.32,351.88Z"/><path class="cls-3" d="M839.28,392.43s21.88-4.7,41.82,8.95C899.54,414,903.65,426.73,902.69,439s-8.56,18.9-15.19,17.4a9.06,9.06,0,0,1-5.81-4.42,13.18,13.18,0,0,1-1.8-7c.09-5.34-.71-21.47-12.5-34.8C853.05,393.88,842.85,392.92,839.28,392.43Z"/><path class="cls-3" d="M839,384.09s8.36-8.38,23-9c13.5-.57,20.37,3.18,24.7,8.25s3.37,9.95-.3,11.35a6.66,6.66,0,0,1-4.43,0,8.65,8.65,0,0,1-3.57-2.21,35.09,35.09,0,0,0-19.38-9.88C845.94,380.54,840.82,383.22,839,384.09Z"/></g></svg>