<svg id="Layer_1" data-name="Layer 1" xmlns="http://www.w3.org/2000/svg" viewBox="0 0 2000 2000"><defs><style>.cls-1{fill:#0a0087;}.cls-2{fill:#fff;}</style></defs><path class="cls-1" d="M1808,1571.83c-83.75,69.52-128.64,182.43-223.79,222.24-132.11,55.2-231.74,130.82-359.75,158.36-139.72,30-247.24,7.31-427-3.52C749,1946,556.08,1867.37,447.94,1789c-68.37-49.57-120.48-54.33-179.83-168.57C184.42,1459.32,62.91,1312.94,55.44,1139,52,1058.15,46,847.05,90.93,705.57c30.61-96.67,57.66-173.29,139.92-276.74,25.81-32.48,26.07-39.38,39.71-53.38C329.3,315.77,390.33,245.51,405,233.27c299.34-213.15,556.46-210.64,767.26-195,148.34,6.44,290.12,80.35,418.67,173.46a983.91,983.91,0,0,1,81.33,65.81c-132.7,36.55-124,164.64-69.52,229.51-141,75.47-30.15,216.69-30.15,216.69s-88.91,143.67,64.08,198.7c-40.66,77.12,47.79,207.2,132.86,187.69,30.71,118.71,140.43,142.38,197.62,115.27-20.31,85.68-71,153.89-97.11,249.29C1859.48,1513.83,1850.31,1536.81,1808,1571.83Z"/><path class="cls-2" d="M861.4,617.14c-.24,2.76-1.3,3.41-1.54,8.75-.32,7.92-8.29,8.11-12.05,14.75-1.3,2.32-5.08,3.9-15.34,5.43-3.76.56-10.4-2.51-15.07-4.88-5.62-2.83-5.15-6.54-11-11.37-4.64-3.86-2.11-9.68-2.9-12.68-2.93-11.07,6.59-17.85,8-20,5.92-9,11.47-3.2,20.71-6.32,7-2.32,14.53.68,15.86,2.33,2.5,3.29,4.64,8.56,5.52,9.54C855.89,605.28,862.37,605.53,861.4,617.14Z"/><path class="cls-2" d="M376.87,1185.89a33.3,33.3,0,0,0-.95,5.53c-.23,5-5.25,5.1-7.62,9.28-.83,1.49-3.22,2.46-9.7,3.44-2.32.35-6.57-1.58-9.52-3.09-3.55-1.79-3.25-4.13-7-7.17-2.91-2.33-1.35-6.13-1.84-8-1.85-7,4.16-11.29,5.06-12.63,3.74-5.69,7.25-2,13.07-4a11.29,11.29,0,0,1,10,1.51c1.58,2.09,2.93,5.44,3.49,6C373.46,1178.39,377.54,1178.55,376.87,1185.89Z"/><path class="cls-2" d="M300.41,1007.82a32.6,32.6,0,0,0-.76,4.73c-.16,4.28-4.11,4.39-5.93,8-.66,1.26-2.54,2.11-7.61,2.93-1.86.31-5.15-1.36-7.42-2.64-2.78-1.62-2.55-3.53-5.42-6.14-2.28-2.09-1-5.25-1.48-6.87-1.48-6,3.28-9.65,4-10.81,3-4.87,5.68-1.74,10.25-3.42,3.41-1.27,7.21.35,7.86,1.29,1.25,1.79,2.3,4.64,2.73,5.16C297.75,1001.4,301,1001.54,300.41,1007.82Z"/><path class="cls-2" d="M1229.67,1022.79a41.11,41.11,0,0,0-1.18,6.78c-.28,6.13-6.43,6.3-9.29,11.45-1,1.79-4,3-11.91,4.2-2.9.44-8.06-2-11.61-3.78-4.36-2.21-4-5.06-8.47-8.83-3.58-3-1.65-7.49-2.32-9.82-2.33-8.56,5.13-13.81,6.22-15.48,4.64-7,8.89-2.49,16-4.9,5.34-1.81,11.28.51,12.3,1.86,1.93,2.55,3.6,6.64,4.28,7.38C1225.4,1013.6,1230.48,1013.81,1229.67,1022.79Z"/><path class="cls-1" d="M1784.58,997.55c5.36,12.83-5.64,26.49-14.74,35.61s-22.2,18.57-35.59,14.74-28.23-6.45-37.45-16.71c-8-8.92-5.94-18.9-12.89-33.64-11.77-25.12,23.06-43.26,50.34-50.34,3.85-1,7.84.47,11.61,1.35C1768,953.76,1774.41,973.19,1784.58,997.55Z"/><path class="cls-1" d="M1750.3,863c8.76,9.92-5.64,24.31-14.74,32.64s-22.22,17-35.59,13.54-24.84-8.22-29.23-19.92c-4.13-11-16.53-12.75-21.1-26.26-7.59-22.38,23.68-45.73,50.45-40.9,3.9.69,22,7.82,25.67,8.86C1746.19,836.71,1735.65,846.39,1750.3,863Z"/><path class="cls-1" d="M1946,1120.55c-1.72,11.16-19,11.12-29.51,10.61s-23.21-3.23-28.37-13.35-8.22-19.85-2.95-29.49c4.95-9-.67-17.55,5.69-28.37,10.52-17.94,43-13,54.47,5.94,1.69,2.77,7,17.93,8.26,20.74C1961.07,1102.37,1948.93,1101.81,1946,1120.55Z"/><path class="cls-1" d="M1864.35,932.86c-1.3,8.4-14.3,8.36-22.18,8s-17.5-2.43-21.33-10-6.18-14.92-2.21-22.17c3.72-6.8-.51-13.18,4.25-21.33,7.92-13.47,32.32-9.8,41,4.48,1.25,2.06,5.2,13.46,6.19,15.58C1875.61,919.21,1866.48,918.77,1864.35,932.86Z"/><path class="cls-1" d="M1731.06,1428.88c8.75,9.92-5.64,24.31-14.74,32.65s-22.22,17-35.6,13.53-24.84-8.22-29.22-19.92c-4.14-11-16.54-12.74-21.11-26.26-7.59-22.38,23.68-45.73,50.45-40.9,3.9.69,22,7.82,25.68,8.87C1727,1402.6,1716.41,1412.29,1731.06,1428.88Z"/><path class="cls-2" d="M1576.45,1312.19c22.47,25.45-14.49,62.41-37.86,83.81s-57,43.58-91.38,34.75-63.78-21.1-75-51.14c-10.61-28.2-42.44-32.73-54.19-67.42-19.49-57.47,60.81-117.44,129.54-105,10,1.79,56.57,20.09,65.93,22.77C1565.9,1244.71,1538.83,1269.56,1576.45,1312.19Z"/><path class="cls-2" d="M1029.45,402.1c27.48,19.94-.53,64.07-18.67,90s-46.18,55-81.61,53.84-66.85-6.69-84.4-33.55c-16.5-25.21-48.55-22.69-67.58-54-31.55-51.83,33.74-127.87,103.52-130.75,10.16-.44,59.59,7.27,69.31,7.85C1004.44,338.54,983.44,368.7,1029.45,402.1Z"/><path class="cls-2" d="M657.75,1034.42c22.47,25.45-14.49,62.41-37.85,83.81s-57,43.58-91.39,34.76-63.78-21.11-75.05-51.15c-10.61-28.2-42.44-32.73-54.19-67.42C379.78,977,460.08,917,528.81,929.38c10,1.79,56.57,20.09,65.93,22.77C647.2,966.94,620.13,991.8,657.75,1034.42Z"/><path class="cls-2" d="M1115.78,1074.33c-7.13,44-73.4,56.22-113.36,61.86s-89,4.46-107.84-30.46-30.38-69.92-9.71-110.51c19.38-38.11-1.73-66.57,23.17-112.5,41.19-76.1,165.07-80.92,208-16.67,6.28,9.34,25.59,63.49,30.46,73.31C1174.07,994.1,1127.72,1000.71,1115.78,1074.33Z"/><path class="cls-2" d="M918.69,1691.57c-20.84,30.9-75.55,17.27-107.91,7.73s-69.23-27.39-71.32-60.4,1.43-63.56,31.39-87.2c28.11-22.22,22-51.1,57.09-77.34,58-43.49,153.93-4.3,164.06,59.31,1.5,9.26-2.81,57-2.56,66.15C991.17,1650.87,953.61,1639.86,918.69,1691.57Z"/></svg>