<svg id="Layer_1" data-name="Layer 1" xmlns="http://www.w3.org/2000/svg" viewBox="0 0 205 59"><defs><style>.cls-1{fill:#e57676;}.cls-2{fill:#8c5551;}.cls-3{fill:#fe7e82;}</style></defs><path class="cls-1" d="M20.63,38.8c-5.57-.15-5.92-4.8-8.45-4a2.19,2.19,0,1,1,4-1.79c.75,2,1.92,4.14,5,4.14a2.2,2.2,0,0,0,2.38-2c0-4.21-11-4.86-11-11,0-4.18,4.68-5.09,7.37-5.09s5.55,1.22,6.72,2.79a2.37,2.37,0,0,1,.06,2.35c-1.27.67-2.34.56-3-.46-.9-1.45-1.73-3-4-3a2.21,2.21,0,0,0-2.46,2.06c0,3.83,11.22,4.84,11.22,10.42C28.57,36.89,25.05,38.92,20.63,38.8Z"/><path class="cls-1" d="M36.11,25.05c2.87,0,5.72,1.81,6.31,4.06,1.19,4.5-9.41,2.15-7.11,5.58a3.82,3.82,0,0,0,3.34,1.79c2.38,0,4.47-1.24,6.07-3.78V30.3c0-2.27-.7-2-.7-2.71a.62.62,0,0,1,.67-.62c1.76,0,2.33-1.5,3.67-1.5a.81.81,0,0,1,.81.8v.59a4.72,4.72,0,0,1,3.54-1.81,3.26,3.26,0,0,1,3.46,3.34A2.28,2.28,0,0,1,54,31c-1.16,0-.14-1.15-.14-2.29s-1.41-1.75-2.16-1.75c-1.63,0-3.62,2-4.88,4.32a29.52,29.52,0,0,1-2,3.33c1.19-1.34,4.35-5,4.35-2.09v2.58c0,2.28.69,2,.69,2.72a.65.65,0,0,1-.69.62H44.69a.65.65,0,0,1-.67-.62c0-.7.7-.44.7-2.72v-.33a9,9,0,0,1-7.78,4.08,7,7,0,0,1-7.21-6.87C29.73,28.13,32.29,25.05,36.11,25.05Zm-1.67,7.7A4.88,4.88,0,0,1,37,31.23c2.56-1,1.14-4.94-.88-4.94S33.69,30.22,34.44,32.75Z"/><path class="cls-1" d="M63,44.2a.64.64,0,0,1-.67.62H57.9c-.41,0-.46.54-.46.21a18.8,18.8,0,0,0,.46-3.54V30.3c0-2.3,0-2.62-.7-2.74s-.1-1,.7-.62c1.59.69,2.65-.35,3.65-1.5.28-.33.8.36.8.8v.08a3.22,3.22,0,0,1,2.56-1.27A6.77,6.77,0,0,1,71.57,32a6.69,6.69,0,0,1-6.95,6.85,3.87,3.87,0,0,1-2.27-.7v3.39C62.35,43.76,63,43.51,63,44.2Zm1.25-6.64C66.2,37.56,67,35.16,67,32s-.93-5.66-2.68-5.66a2.17,2.17,0,0,0-1.94,2.15v6.92A2,2,0,0,0,64.29,37.56Z"/><path class="cls-1" d="M85.82,36.87A3.31,3.31,0,0,1,83,38.37a2.51,2.51,0,0,1-2.76-2.5V30a10.87,10.87,0,0,1-1.61,1.34,3.86,3.86,0,0,0-1.73,3.26c0,1.49.78,2.79,1.92,2,.25-.19,1.75-1.39,1.75-1.08a20.44,20.44,0,0,1-1.26,1.72A3.87,3.87,0,0,1,76,38.79a3.34,3.34,0,0,1-3.51-3.52c0-2.45,2.61-3.77,4.47-4.62s2.92-1.74,2.92-3a1.46,1.46,0,0,0-1.63-1.37,1.92,1.92,0,0,0-2.09,2.07c0,1-.7,1.24-1.35,1.24a1.26,1.26,0,0,1-1.29-1.3c0-1.5,1.94-3.25,4.73-3.25,3.9,0,6.46,2.35,6.46,5.76v4.86c0,.46.1.66.54.7C85.89,36.41,86.23,36.23,85.82,36.87Z"/><path class="cls-1" d="M119.21,26.05a3.22,3.22,0,0,1,1.84.56V25.17c0-2.07-.39-1.89-.64-2.48-.7-1.68.4-3.57,1.34-3.73-.63,1.1-.58,2.31,2.52,1.82a.72.72,0,0,1,.84.71V35.18c0,2.07.1,1.72.73,2.51.19.23,1.42,2.51-1.1,3.3l-.18-.37a3.31,3.31,0,0,0-3-1.83h0c-.95-.16-.55-.8-.55-1.06v-.17a3.07,3.07,0,0,1-2.36,1,6.17,6.17,0,0,1-6.06-6.3C112.63,28.48,115.58,26.05,119.21,26.05Zm0,1.15c-1.44,0-2.36,2-2.36,5.1s.92,5.17,2.52,5.17c.87,0,1.7-.73,1.7-2.34v-5.9A1.83,1.83,0,0,0,119.19,27.2Z"/><path class="cls-1" d="M133.42,26.05a6.28,6.28,0,1,1-6.61,6.27A6.43,6.43,0,0,1,133.42,26.05Zm-2.35,6.2c-.1,2.83.87,5.15,2.16,5.2s2.43-2.22,2.53-5.05-.86-5.15-2.18-5.21S131.17,29.42,131.07,32.25Z"/><path class="cls-1" d="M153.36,35.6a6.31,6.31,0,0,1-5.57,3,6.44,6.44,0,0,1-6.61-6.28c0-3.47,2.36-6.27,5.83-6.27,3.18,0,5.47,1.95,5.47,4a2,2,0,0,1-4,0c0-1.89-.47-2.9-1.46-2.9-2.81.07-2.74,9.72,2.59,9.27a4.1,4.1,0,0,0,2.91-1.39.49.49,0,0,1,.7-.09A.46.46,0,0,1,153.36,35.6Z"/><path class="cls-1" d="M179.86,35.18V30.84c0-2.08-.64-1.84-.64-2.48a.57.57,0,0,1,.61-.57c1.61,0,2.13-1.37,3.36-1.37a.73.73,0,0,1,.73.73v8c0,2.07.63,1.84.63,2.48a.59.59,0,0,1-.63.56h-4.09a.58.58,0,0,1-.61-.56C179.22,37,179.86,37.25,179.86,35.18Z"/><path class="cls-1" d="M197.84,36.85a3,3,0,0,1-2.6,1.37,2.29,2.29,0,0,1-2.52-2.29V30.6a9.66,9.66,0,0,1-1.46,1.23,3.53,3.53,0,0,0-1.58,3c0,1.37.7,2.55,1.74,1.82.24-.17,1.6-1.26,1.6-1a18.5,18.5,0,0,1-1.15,1.57,3.53,3.53,0,0,1-3,1.39,3,3,0,0,1-3.21-3.21c0-2.24,2.38-3.44,4.08-4.22s2.67-1.58,2.67-2.74a1.33,1.33,0,0,0-1.49-1.25A1.75,1.75,0,0,0,189,29.07a1.08,1.08,0,0,1-1.23,1.13A1.15,1.15,0,0,1,186.56,29c0-1.37,1.77-3,4.32-3,3.56,0,5.9,2.14,5.9,5.26v4.43c0,.43.09.61.49.64C197.9,36.43,198.21,36.27,197.84,36.85Z"/><path class="cls-1" d="M160,26c2.62,0,5.22,1.66,5.76,3.71,1.08,4.1-8.59,2-6.49,5.1a3.47,3.47,0,0,0,3,1.62c2.17,0,4.09-1.13,5.55-3.44v-2.2c0-2.07-.64-1.84-.64-2.47a.57.57,0,0,1,.61-.57c1.61,0,2.13-1.37,3.36-1.37a.73.73,0,0,1,.73.73v.55A4.31,4.31,0,0,1,175.11,26a3,3,0,0,1,3.16,3.05,2.07,2.07,0,0,1-2,2.33c-1.07,0-.14-1.05-.14-2.08s-1.28-1.6-2-1.6c-1.49,0-3.31,1.8-4.46,3.94a27.53,27.53,0,0,1-1.8,3c1.09-1.23,4-4.56,4-1.91v2.36c0,2.07.63,1.84.63,2.47a.59.59,0,0,1-.63.57h-4.09a.59.59,0,0,1-.61-.57c0-.63.64-.4.64-2.47v-.31a8.21,8.21,0,0,1-7.1,3.73,6.44,6.44,0,0,1-6.59-6.28C154.13,28.81,156.47,26,160,26Zm-1.53,7a4.4,4.4,0,0,1,2.33-1.4c2.34-.92,1-4.5-.8-4.5S157.74,30.72,158.43,33Z"/><path class="cls-2" d="M109.53,24.87c-2.16-2.43-6.24-2.73-9.4.38-3.16-3.11-7.24-2.81-9.4-.38-2.29,2.59-1.33,7.43,1.69,11.29a32.63,32.63,0,0,0,7.71,6.48,32.63,32.63,0,0,0,7.71-6.48C110.86,32.3,111.82,27.46,109.53,24.87Z"/><path class="cls-3" d="M184.67,20.47a1.65,1.65,0,0,0-2.44.1,1.65,1.65,0,0,0-2.44-.1c-.59.67-.34,1.93.44,2.93a8.42,8.42,0,0,0,2,1.68,8,8,0,0,0,2-1.68C185,22.4,185.27,21.14,184.67,20.47Z"/></svg>